<svg xmlns="http://www.w3.org/2000/svg" viewBox="0 0 64 64" width="96" height="96" fill="none">
  <defs>
    <radialGradient id="aura" cx="32" cy="32" r="28" gradientUnits="userSpaceOnUse">
      <stop offset="0%" stop-color="#2dd4bf" stop-opacity="0.55" />
      <stop offset="55%" stop-color="#14b8a6" stop-opacity="0.12" />
      <stop offset="100%" stop-color="#0d9488" stop-opacity="0" />
    </radialGradient>
    <linearGradient id="head" x1="32" y1="10" x2="32" y2="44" gradientUnits="userSpaceOnUse">
      <stop offset="0%" stop-color="#2dd4bf" stop-opacity="0.55" />
      <stop offset="100%" stop-color="#0d9488" stop-opacity="0.10" />
    </linearGradient>
  </defs>

  <circle cx="32" cy="32" r="26" fill="url(#aura)" />

  <g stroke="#14b8a6" fill="#14b8a6">
    <path d="M27 13 Q 20 5 12 4" stroke-width="1.5" stroke-linecap="round" fill="none" />
    <path d="M37 13 Q 44 5 52 4" stroke-width="1.5" stroke-linecap="round" fill="none" />
    <circle cx="12" cy="4" r="1.9" />
    <circle cx="52" cy="4" r="1.9" />

    <path d="M32 10 L52 22 L46 38 L32 44 L18 38 L12 22 Z"
          fill="url(#head)" stroke-width="2.4" stroke-linejoin="round" />

    <path d="M22 18 L28 24 L22 30 L17 24 Z"
          fill="#14b8a6" fill-opacity="0.28"
          stroke-width="1.4" stroke-linejoin="round" />
    <path d="M42 18 L47 24 L42 30 L36 24 Z"
          fill="#14b8a6" fill-opacity="0.28"
          stroke-width="1.4" stroke-linejoin="round" />

    <circle cx="22" cy="24" r="1.6" stroke="none" />
    <circle cx="42" cy="24" r="1.6" stroke="none" />

    <path d="M27 42 L18 51 L28 57"
          fill="none" stroke-width="2.1" stroke-linecap="round" stroke-linejoin="round" />
    <path d="M37 42 L46 51 L36 57"
          fill="none" stroke-width="2.1" stroke-linecap="round" stroke-linejoin="round" />

    <circle cx="28" cy="57" r="1.6" stroke="none" />
    <circle cx="36" cy="57" r="1.6" stroke="none" />
  </g>
</svg>
